<svg xmlns="http://www.w3.org/2000/svg" viewBox="-10 -10 155.11 163.33" width="155.11" height="163.33" id="logo-graditude" y="1444">
    <defs>
        <linearGradient id="ata" x1="-110.75" y1="-388.45" x2="-110.87" y2="-388.31" gradientTransform="matrix(868.89 0 0 920 96345.17 357392.67)" gradientUnits="userSpaceOnUse">
            <stop offset="0" stop-color="#9e8449"/>
            <stop offset=".16" stop-color="#9e8449"/>
            <stop offset=".24" stop-color="#c6be83"/>
            <stop offset=".27" stop-color="#9e8449"/>
            <stop offset=".4" stop-color="#9e8449"/>
            <stop offset=".43" stop-color="#c7c085"/>
            <stop offset=".63" stop-color="#9e8449"/>
            <stop offset="1" stop-color="#9e8449"/>
        </linearGradient>
    </defs>
    <g data-name="Layer 2">
        <g data-name="Layer 1">
            <g data-name="Layer 2">
                <g data-name="Layer 1-2">
                    <path d="M67.53 0a36.4 36.4 0 0 1 31.66 18.38 36.25 36.25 0 0 1 31.61 53.19 36.25 36.25 0 0 1-31.58 53.37 36.45 36.45 0 0 1-63.31 0A36.25 36.25 0 0 1 4.32 71.75a36.25 36.25 0 0 1 31.56-53.37A36.4 36.4 0 0 1 67.53 0Zm0 107.36-.31.5a36.38 36.38 0 0 1-28.81 17h-.63l.31.52a34.78 34.78 0 0 0 28.82 16.32h.65A34.79 34.79 0 0 0 97 125.43l.31-.52h-.63a36.4 36.4 0 0 1-28.87-17ZM36.84 20l-.1.2a34.57 34.57 0 0 0 .34 32.68l.65 1.19h-1.37a34.78 34.78 0 0 0-30.2 17.67 34.79 34.79 0 0 0 30.22 17.5h1.37l-.66 1.19a34.58 34.58 0 0 0-.22 32.88 34.75 34.75 0 0 0 29.95-18l.71-1.29.71 1.29a34.78 34.78 0 0 0 30 18A34.57 34.57 0 0 0 98 90.44l-.65-1.19h1.36A34.74 34.74 0 0 0 129 71.58a34.82 34.82 0 0 0-30.23-17.5h-1.41l.64-1.19A34.57 34.57 0 0 0 98.23 20a34.73 34.73 0 0 0-30 18l-.7 1.29-.68-1.29a34.8 34.8 0 0 0-30.01-18Zm93 53.25-.27.45a36.36 36.36 0 0 1-29.47 17.14l.35.72a36.18 36.18 0 0 1-.31 31.73h.62a34.77 34.77 0 0 0 27.6-16.42l.34-.56a34.52 34.52 0 0 0 1.43-32.52Zm-124.56.18L5 74a34.62 34.62 0 0 0 29.43 49.29h.6l-.1-.2a36 36 0 0 1-3.41-20.9l.12-.79a36.07 36.07 0 0 1 3.2-10.15l.21-.41h-.69A36.41 36.41 0 0 1 5.55 73.87ZM48.65 39l1.19.67a36.18 36.18 0 0 1 17.52 23.27l.21.89-.91.1a7.81 7.81 0 0 0-3.6 1.35A7.94 7.94 0 0 0 61.23 67l-.49.67-.35.81a7.74 7.74 0 0 0-.61 2.35V71a7.73 7.73 0 0 0 .64 3.78l.37.83h-.06l.53.71A7.86 7.86 0 0 0 63 78l.09.07a7.81 7.81 0 0 0 3.6 1.34l.91.1-.21.89a36.18 36.18 0 0 1-17.55 23.3l-1.19.67v-1.36A36.3 36.3 0 0 1 60 76.22l.62-.58-.76.23a36.42 36.42 0 0 1-28.69-3.27l-.26-.16-1.18-.69 1.18-.7a36.58 36.58 0 0 1 29-3.63l.64.19-.55-.47a36.3 36.3 0 0 1-11.36-26.48V39Zm37.92 0v1.36A36.27 36.27 0 0 1 75.2 67.14l-.62.58.75-.23A36.41 36.41 0 0 1 104 70.77l.26.16 1.18.69-1.18.7a36.58 36.58 0 0 1-29 3.62l-.64-.19.49.46a36.27 36.27 0 0 1 11.39 26.48V104.35l-1.19-.67a36.18 36.18 0 0 1-17.46-23.24l-.21-.89.91-.1A7.81 7.81 0 0 0 74 76.33l.52-.7.34-.78a7.74 7.74 0 0 0 .61-2.35v-.12a7.73 7.73 0 0 0-.64-3.78l-.37-.84h.06L74 67a7.8 7.8 0 0 0-1.74-1.71l-.09-.07a7.78 7.78 0 0 0-3.6-1.35l-.91-.1.21-.89a36.18 36.18 0 0 1 17.5-23.21ZM74.71 78l-.07.08a9.45 9.45 0 0 1-5 2.83l.13.5a34.57 34.57 0 0 0 14.62 19.82l.55.35v-.7a34.66 34.66 0 0 0-9.83-22.49Zm-14.2 0-.38.39a34.69 34.69 0 0 0-9.83 22.49v.7l.55-.35A34.57 34.57 0 0 0 65.44 81.4l.13-.5h-.12a9.43 9.43 0 0 1-2.88-1.17l-.44-.29a9.49 9.49 0 0 1-1.55-1.35Zm7-10.62A4.48 4.48 0 1 1 63 71.85a4.47 4.47 0 0 1 4.5-4.48Zm34 3.88a34.78 34.78 0 0 0-24.32-2.6l-.57.16v.12A9.33 9.33 0 0 1 77.1 72v.52a9.35 9.35 0 0 1-.39 2v.1l.56.15a35 35 0 0 0 25-3.13ZM58 68.59a35 35 0 0 0-25 3.13l.73.38A34.8 34.8 0 0 0 58 74.71l.56-.16v-.12a9.34 9.34 0 0 1-.43-3.07v-.52a9.35 9.35 0 0 1 .39-2v-.1Zm9.53.4a2.86 2.86 0 1 0 2.88 2.86A2.86 2.86 0 0 0 67.54 69ZM35 20h-.62A34.63 34.63 0 0 0 5 69.56l.25.52.42-.69a36.15 36.15 0 0 1 17-14.24l.71-.28a36.27 36.27 0 0 1 11.17-2.36h.44l-.36-.72A36.18 36.18 0 0 1 35 20Zm65.06 0 .1.2a36.19 36.19 0 0 1 .09 31.85l-.21.41h.69a36.44 36.44 0 0 1 28.82 16.94l.27.44.27-.55a34.52 34.52 0 0 0-1.21-31.78l-.35-.6A34.76 34.76 0 0 0 100.66 20ZM84.95 41.79l-.55.35A34.57 34.57 0 0 0 69.78 62l-.13.49.47.11a9.4 9.4 0 0 1 2.57 1.11l.39.26a9.42 9.42 0 0 1 1.55 1.35l.07.08.38-.39a34.66 34.66 0 0 0 9.84-22.51Zm-34.68 0v.7A34.69 34.69 0 0 0 60.13 65l.38.39.07-.08a9.57 9.57 0 0 1 1.14-1l.42-.31a9.43 9.43 0 0 1 3.32-1.46h.12l-.13-.5a34.57 34.57 0 0 0-14.62-19.9ZM67.53 1.62A34.78 34.78 0 0 0 38.06 17.9l-.31.51h.63a36.43 36.43 0 0 1 28.87 17l.31.5.31-.5a36.35 36.35 0 0 1 28.82-17h.63L97 17.9A34.78 34.78 0 0 0 68.19 1.62h-.66Z" style="fill:url(#ata)" data-name="brand- -logo- -myrituals crm tier logo 01"/>
                </g>
            </g>
        </g>
    </g>
</svg>