<svg width="185" height="20" viewBox="0 0 185 20" fill="none" xmlns="http://www.w3.org/2000/svg">
    <g clip-path="url(#clip0_559_147)">
        <path d="M15.7242 6.90408C15.7242 3.53808 13.4689 1.05408 9.81752 1.05408H2.01351V9.83808H0.116211V12.8261H2.01351V18.2261H5.00266V12.8261H8.70777L12.1444 18.2261H15.9748L11.8759 12.1061C14.0954 11.3681 15.7242 9.46008 15.7242 6.90408ZM5.11006 9.82008V4.06008H9.65643C11.8222 4.06008 12.7351 5.42808 12.7351 6.90408C12.7351 8.45208 11.7327 9.83808 9.65643 9.83808L5.11006 9.82008Z" fill="white"/>
        <path d="M23.7429 18.28H26.7321V1.10803H23.7429V18.28Z" fill="white"/>
        <path d="M39.7984 18.2081H42.7875V4.06008H47.6024V1.05408H35.073V4.06008H39.8879V18.2081H39.7984Z" fill="white"/>
        <path d="M55.8898 1.05408V11.2781C55.8898 15.3101 58.8073 18.6761 63.1568 18.6761C67.5063 18.6761 70.4238 15.3101 70.4238 11.2781V1.05408H67.3452V10.5401C67.3452 13.7261 65.4479 15.5621 63.0673 15.5621C60.6867 15.5621 58.7894 13.6541 58.7894 10.5401V1.05408H55.8898Z" fill="white"/>
        <path d="M80.3221 1.05408V3.89808H84.0272L78.1205 18.2261H81.2886L82.5595 15.0401H89.4685L90.7393 18.2261H93.997L87.1237 1.05408H80.3221ZM83.6692 12.1601L86.0498 6.04008L88.4304 12.1601H83.6692Z" fill="white"/>
        <path d="M114.581 11.1161H111.592V15.2021H105.148V1.05408H102.141V18.2261H114.581V11.1161Z" fill="white"/>
        <path d="M126.663 6.04007C126.663 5.03207 127.576 3.77207 130.1 3.77207C131.639 3.77207 133.017 4.31207 134.556 5.77007L136.812 3.68207C135.183 1.93607 132.981 1.01807 130.279 1.01807C126.573 1.01807 123.566 3.10607 123.566 6.22007C123.566 13.2581 134.109 9.49607 134.109 13.3481C134.109 14.9861 132.48 15.9221 130.189 15.9221C128.292 15.9221 126.573 14.9141 125.374 13.6541L123.083 15.8321C125.177 18.1181 127.808 19.0181 130.1 19.0181C133.805 19.0181 137.277 16.8401 137.277 13.2581C137.188 6.04007 126.663 9.91007 126.663 6.04007Z" fill="white"/>
        <path d="M149.538 13.0241C148.088 13.0241 146.889 14.2121 146.889 15.7781C146.889 17.2361 148.07 18.5321 149.538 18.5321C150.988 18.5321 152.187 17.3441 152.187 15.7781C152.187 14.2121 151.005 13.0241 149.538 13.0241Z" fill="white"/>
        <path d="M164.323 13.0241C162.873 13.0241 161.673 14.2121 161.673 15.7781C161.673 17.2361 162.855 18.5321 164.323 18.5321C165.772 18.5321 166.972 17.3441 166.972 15.7781C166.972 14.2121 165.772 13.0241 164.323 13.0241Z" fill="white"/>
        <path d="M179.143 13.0241C177.693 13.0241 176.494 14.2121 176.494 15.7781C176.494 17.2361 177.675 18.5321 179.143 18.5321C180.593 18.5321 181.792 17.3441 181.792 15.7781C181.792 14.2121 180.593 13.0241 179.143 13.0241Z" fill="white"/>
    </g>
    <defs>
        <clipPath id="clip0_559_147">
            <rect width="181.792" height="19.1386" fill="white"/>
        </clipPath>
    </defs>
</svg>
