<svg xmlns="http://www.w3.org/2000/svg" width="100" height="96" viewBox="-10 -10 100 96" id="logo" y="614"><g fill="none" fill-rule="evenodd"><path fill="#807467" d="M0 76h80V0H0z"/><path fill="#231F20" d="M3 73h74V3H3z"/><path d="M40.054 36.71c-.283 0-.622-.272-1.32-.92l-.16-.149c-6.464-6.004-11.134-10.34-16.582-15.855-2.441-2.471-4.83-4.66-7.36-6.976a452.954 452.954 0 0 1-3.704-3.418l-.36-.334C9.484 8.048 7.226 5.95 7.022 5.625c-.031-.049-.062-.091-.089-.13-.07-.1-.122-.171-.09-.238.038-.076.166-.106.573-.13A88.664 88.664 0 0 1 12.48 5c4.592 0 9.64.247 14.094.466 1.058.051 2.08.102 3.052.146.194.01.227.027.275.137.008.018.028.06.006.103-.024.05-.088.082-.237.122-.365.095-.803.41-1.09.675-.182.167-.387.358-.59.476a.425.425 0 0 1-.274.027c-1.801-.32-3.924-.477-6.488-.477-2.13 0-4.287.104-6.19.197-.545.026-1.208.04-1.85.054-.493.01-.959.02-1.365.035l-.085.002c-.1.002-.24.006-.252.036-.003.006-.01.05.141.215 6.941 7.59 14.543 14.471 22.591 21.756 1.753 1.586 3.565 3.227 5.347 4.854.16.147.24.278.292.363.033.056.06.098.08.098.049 0 .19-.13.339-.267 2.387-2.198 13.766-12.643 13.835-12.7a.16.16 0 0 1 .101-.032c.25 0 .725.442.966.702.145.157.206.268.199.36-.007.087-.07.136-.134.183-.012.01-.026.02-.04.033-2.426 2.038-4.488 4.078-6.672 6.236l-.946.933-.424.417c-2.064 2.034-4.403 4.339-6.627 6.316-.165.147-.31.244-.48.244" fill="#807467"/><path d="M30.745 15.312c-.053 0-.105-.025-.172-.084-.457-.4-.675-.772-.649-1.102.049-.614.797-1.111 1.696-1.652.731-.439 1.642-.985 2-1.61.039-.068.253-.069.255-.069.11 0 .171.026.182.08.018.086.252.356.44.573.287.334.363.433.354.49l-.004.02-.022.019c-.15.086-.765.687-1.307 1.243l-.253.262c-.737.767-1.372 1.427-2.342 1.777l-.052.02a.344.344 0 0 1-.126.033M25.618 19.577a.644.644 0 0 1-.097-.008c-.29-.05-.654-.386-.927-.854-.08-.136.394-.875 1.132-1.411.308-.223.92-.69 1-.784a.077.077 0 0 1 .061-.025c.222 0 1.062.705 1.217 1.529.013.062-.053.1-.195.18a4.087 4.087 0 0 0-.759.535c-.404.36-.991.838-1.432.838" fill="#807467"/><path d="M35.776 23.684c-.043 0-.09-.035-.163-.12-1.157-1.332-2.512-2.451-3.823-3.534-2.025-1.67-4.08-3.53-5.023-6.28-.229-.666-.1-1.922.032-2.176.011-.02.029-.05.06-.058.186-.056.38-.083.575-.083.683 0 1.246.355 1.247.47.025 2.976 1.707 4.657 3.836 6.783l.28.283c.408.407.992 1.011 1.413 1.454.307-1.642.053-2.779-.192-3.879-.025-.115-.052-.23-.076-.344-.138-.637-.28-1.296-.353-1.94-.006-.042.028-.063.095-.103.076-.047.203-.123.347-.265.146-.146.36-.294.487-.294.057 0 .083.03.094.048.171.292.361.93.432 1.342l.021.1c.494 2.174.78 5.137.808 8.346.001.13-.01.195-.042.227a.076.076 0 0 1-.055.023" fill="#807467"/><path d="M24.124 17.176c-.06 0-.12-.04-.21-.139a76.53 76.53 0 0 0-6.256-6.155c-.781-.692-1.588-1.407-2.336-2.151-.084-.084-.135-.151-.112-.208.022-.054.092-.058.156-.058l.114.003c.441.02.893.029 1.395.029 1.08 0 2.186-.044 3.255-.085a84.214 84.214 0 0 1 3.344-.088c2.807 0 6.008.246 8.47 2.07.026.017.039.055.039.112-.002.085-.048.54-.85 1.1-.156.11-.269.205-.35.276-.102.086-.153.13-.203.13a.073.073 0 0 1-.048-.018c-1.63-1.304-3.866-1.912-7.036-1.912-1.376 0-2.74.113-3.941.211l-.036.003c-.27.021-.455.037-.503.058a.59.59 0 0 0 .069.078c.063.066.15.156.233.286.124.191.91.879 1.905 1.75 1.336 1.17 3 2.624 4.14 3.812.08.085-.042.315-.203.468-.166.16-.645.332-.912.39-.017.003-.03.01-.046.017-.022.009-.047.02-.078.02" fill="#807467"/><path d="M38.894 30.306c-.12 0-.29-.096-.519-.292a322.08 322.08 0 0 1-1.294-1.124 189.947 189.947 0 0 0-1.835-1.586l-.319-.27c-2.546-2.164-5.18-4.4-7.772-6.803-.069-.064-.14-.13-.096-.228.069-.157.304-.292.601-.464.052-.03.106-.06.16-.093.103-.06.187-.12.255-.167.097-.069.155-.11.204-.11a.07.07 0 0 1 .052.02c2.406 2.432 4.365 4.21 5.825 5.284.79.58 1.513 1.277 2.214 1.952.315.303.612.589.91.86.17.157.31.293.422.401.134.13.26.255.308.273.016-.064-.036-.332-.106-.695l-.032-.162c-.264-1.362-.319-3.024-.372-4.63-.012-.377-.025-.75-.04-1.115-.192-4.715-.39-9.592-4.562-12.458-.04-.028-.08-.061-.08-.107 0-.031.02-.061.055-.087a2.993 2.993 0 0 1 1.823-.54c.186.007.3.035.456.184 4.12 3.93 3.984 9.934 3.854 15.74-.046 2.028-.092 4.124.054 6.007.003.038 0 .11-.046.16a.159.159 0 0 1-.12.05M30.684 8.334a.26.26 0 0 1-.054-.007 9.213 9.213 0 0 0-.856-.112c-.502-.037-1.29-.216-1.346-.388-.012-.031-.002-.065.025-.089 1.16-1.029 1.94-1.64 2.73-1.918 1.449-.509 2.896-.767 4.3-.767 1.074 0 2.1.154 3.05.457.058.018.128.07.139.151.015.114-.086.242-.3.376-.314.201-.498.352-.633.463-.434.357-.434.357-2.521.4l-.19.004c-1.49.03-3.03.062-4.17 1.305l-.025.027c-.06.065-.089.098-.15.098M44.846 11.976c-.118 0-2.85-1.738-3.852-2.857-.041-.045-.052-.1-.028-.151.107-.24.98-.44 1.043-.44 1.143.202 2.044.894 2.998 1.627l.085.065c.085.065.208.145.326.225.317.208.403.272.406.33 0 .02-.008.037-.023.048a2.2 2.2 0 0 0-.171.222c-.102.138-.227.31-.339.432a3.244 3.244 0 0 0-.177.224c-.141.19-.205.27-.262.275h-.006ZM52.601 13.784a.277.277 0 0 1-.095-.02c-1.181-.451-1.2-.503-1.08-1.056.057-.268.143-.672.099-1.336-.062-.932-.464-2.318-1.39-3.152-.023-.023-.029-.056-.015-.092.035-.093.187-.191.438-.193.034 0 .141-.022.253-.046.176-.037.375-.08.486-.08.049 0 .078.009.097.027 1.407 1.333 1.964 3.711 1.353 5.786-.021.076-.048.162-.146.162M52.001 17.33c-.19 0-.337-.052-.4-.143-.862-1.191-2.134-1.915-3.365-2.616-.107-.061-.165-.126-.187-.207-.026-.102.01-.228.12-.409.22-.363.712-.942.877-.942.01 0 .02.001.028.004 1.085.4 2.027 1.127 2.939 1.832.194.151.416.308.632.46.526.373.71.51.706.597-.028.51-.258.719-.578 1.007-.086.08-.177.162-.276.26-.094.095-.29.156-.496.156" fill="#807467"/><path d="M44.368 23.497c-.135 0-.138-.173-.148-.745a35.13 35.13 0 0 0-.038-1.256c-.15-3.128-.338-7.02 1.874-9.495 1.082-1.21 1.665-1.493 2.341-1.824.26-.126.528-.256.845-.448.05-.029.2-.048.318-.048.141 0 .232.022.273.066.303.317.401.669.477 1.21l.004.027c.025.185.03.223-.087.266-1.08.386-2.103 1.135-2.88 2.111-1.298 1.629-1.74 3.793-1.313 6.431l.026.168.006.04.009-.009c.05-.049.135-.131.282-.206.233-.115 1.704-1.123 2.616-2.801.065-.121.46-.405.626-.405.023 0 .042.004.058.014.223.123.435.206.605.272.25.096.414.162.453.286.02.064.004.137-.054.222-1.376 2.081-3.517 4.22-5.873 5.868-.054.037-.101.072-.144.102-.132.096-.21.154-.276.154M56.706 21.476c-.014 0-.027-.002-.04-.005-.39-.092-1.066-.774-1.56-1.272a5.875 5.875 0 0 0-.455-.434.088.088 0 0 1-.037-.07c-.004-.047-.012-.172.627-.76l.135-.128c.222-.212.416-.394.58-.394.022 0 .04.002.06.008.472.147.775.444 1.315 1.001.152.157.334.383.481.565.09.11.183.226.204.244.028.02.056.064.028.145-.104.31-1.014 1.1-1.338 1.1M37.9 9.823c-.04 0-.15 0-.552-.574-.005-.007-.524-.777-.357-.905.023-.02.096-.066.228-.153a83.013 83.013 0 0 0 2.792-1.919c1.435-1.026 3.33-1.24 4.669-1.24.67 0 1.347.052 2.01.16.105.016.245.048.26.143.012.081-.074.166-.273.268-.25.127-.47.25-.683.37-.31.172-.601.335-.947.491-.02.01-.049.027-.088.05-.194.112-.57.331-.978.292a3.168 3.168 0 0 0-.274-.013c-1.796 0-4.583 1.456-5.737 2.996a.084.084 0 0 1-.07.034" fill="#807467"/><path d="M41.484 30.857c-.122 0-.198-.11-.225-.329a11.11 11.11 0 0 1-.037-2.486c.104-1.125-.087-3.177-.225-4.677-.074-.8-.138-1.492-.14-1.84-.013-3.408.14-6.932 1.33-9.639.045-.103.107-.245.273-.245.094 0 .213.045.373.142 1.025.623.954.777.931.828-1.342 2.917-1.246 6.23-1.153 9.434.053 1.818.083 3.713-.051 5.243l-.015.157c-.028.316-.05.566-.02.6.034-.001.18-.15.334-.306.09-.092.2-.202.329-.328a495.972 495.972 0 0 1 3.767-3.606l.033-.03c.68-.648 1.368-1.298 2.06-1.95 4.048-3.821 8.234-7.77 11.351-11.71.054-.068.1-.12.135-.162l.055-.065c-.023-.003-.057-.004-.093-.006-.051-.001-.116-.005-.198-.01a6.362 6.362 0 0 0-.505-.017c-.837 0-1.718.131-2.57.257-.74.11-1.835.255-2.785.255-.211 0-.409-.006-.587-.021-.084-.006-.234-.017-.314-.24a3.356 3.356 0 0 0-.301-.783 6.218 6.218 0 0 1-.156-.34c-.02-.05-.043-.101-.013-.146.027-.041.087-.059.207-.06 2.359-.018 10.11-.083 10.811-.105.35-.011.535-.014.567.087.023.076-.056.164-.315.346-1.491 1.052-2.999 2.442-4.482 4.135-1.238 1.41-2.046 2.187-2.983 3.089-.484.466-1.034.995-1.7 1.666-4.34 4.378-8.829 8.907-13.373 12.696-.098.082-.212.166-.315.166" fill="#807467"/><path d="M58.673 19.33c-.065 0-.137-.07-.272-.208-.092-.095-.196-.202-.311-.288-.189-.143-.29-.289-.305-.433a.423.423 0 0 1 .126-.32c2.98-3.246 8.673-9.075 11.317-10.951-.241-.438-2.703-.46-4.186-.474-.494-.005-.92-.008-1.22-.023l-.5-.025c-1.764-.089-3.59-.18-5.373-.18-3.463 0-7.914.302-11.627 2.664a.411.411 0 0 1-.223.068c-.145 0-.28-.077-.423-.157-.06-.033-.122-.07-.184-.096-.368-.17-.792-.476-.813-.635a.085.085 0 0 1 .03-.08c3.318-2.72 7.578-3.096 11.686-3.096 1.049 0 2.13.027 3.175.052l.313.008c.593.014 1.174.02 1.778.02 1.63 0 3.032-.05 4.389-.098C67.182 5.039 68.25 5 69.285 5c1.353 0 2.5.067 3.608.21.085.011.167.03.198.094.039.081-.015.195-.142.403-.622 1.024-13.066 12.558-14.223 13.604a.083.083 0 0 1-.053.02M6.045 69.37c-.16 0-.18-.2-.212-.692-.407-6.376.023-14.814.337-20.976.009-.187.027-.219.142-.265a.176.176 0 0 1 .063-.014c.085 0 .127.09.17.236.1.348.432.763.71 1.035.197.193.381.376.503.562.04.062.05.158.03.263-.742 3.757-.506 8.17-.297 12.064.028.52.043 1.153.057 1.766.01.467.02.907.037 1.292.006.156.024.22.058.22.072 0 .242-.14.298-.186 8.732-7.21 16.676-15.081 25.086-23.414 1.014-1.005 2.03-2.012 3.05-3.018.036-.037.07-.068.1-.094.071-.067.119-.11.12-.15.001-.071-.135-.209-.357-.427-2.171-2.128-13.125-13.061-13.217-13.164a.15.15 0 0 1-.035-.116c.02-.242.474-.683.74-.905.154-.13.269-.19.36-.19.098 0 .155.068.205.127.012.013.024.025.035.04 2.328 2.502 4.618 4.673 7.555 7.366 1.959 1.795 4.51 4.164 6.877 6.567.276.281.445.469.442.708-.003.273-.234.599-.852 1.2-6.713 6.526-11.178 10.78-16.95 15.93-3.17 2.826-5.851 5.423-8.956 8.43-.65.628-1.313 1.271-1.997 1.93a74.26 74.26 0 0 0-1.045 1.053c-1.122 1.14-2.516 2.558-2.792 2.714-.126.071-.202.108-.265.108" fill="#807467"/><path d="m15.134 47.423-.057-.002c-.645-.047-1.17-.759-1.738-1.614-.463-.695-1.04-1.562-1.698-1.902-.064-.034-.081-.222-.07-.309.013-.084.05-.108.08-.113.092-.018.376-.24.606-.418.41-.32.51-.377.551-.311.1.156.839.827 1.31 1.24.094.083.187.165.279.243.806.702 1.503 1.305 1.87 2.228l.022.05c.045.103.065.167-.054.29-.4.41-.77.618-1.1.618M19.867 52.503c-.168-.002-.862-.37-1.439-1.088-.227-.281-.725-.873-.825-.95-.017-.014-.037-.043-.023-.097.052-.214.725-.976 1.605-1.126h.011c.057 0 .094.059.174.187.098.154.262.415.563.72.415.42.958 1.03.875 1.461-.053.276-.406.623-.899.883a.09.09 0 0 1-.042.01" fill="#807467"/><path d="M13.657 50.545c-.453 0-1.285-.069-1.33-.208a1.825 1.825 0 0 1 .236-1.586c.073-.1.13-.152.17-.152 3.14-.024 4.912-1.626 7.155-3.653l.294-.264c.448-.405 1.09-.963 1.529-1.34a9.217 9.217 0 0 0-1.554-.133c-.962 0-1.762.16-2.536.316-.12.025-.241.049-.361.072-.634.125-1.353.264-2.045.338-.043 0-.062-.03-.103-.09a1.655 1.655 0 0 0-.28-.33c-.165-.15-.324-.366-.31-.485a.095.095 0 0 1 .05-.074c.309-.165.98-.344 1.413-.41l.1-.02c2.282-.471 5.407-.743 8.8-.77h.016c.136 0 .22.011.24.07.02.057-.034.114-.122.183-1.405 1.101-2.583 2.39-3.724 3.638-1.76 1.926-3.723 3.882-6.617 4.778-.32.1-.732.12-1.02.12" fill="#807467"/><path d="M9.202 61.426a.078.078 0 0 1-.058-.024c-.038-.04-.034-.121-.028-.241.07-1.43.004-2.952-.06-4.426-.177-4.058-.36-8.256 2.09-11.242.017-.023.055-.035.11-.035.09 0 .566.04 1.16.806.115.149.216.256.29.334.113.12.174.185.12.246-2.483 2.803-2.1 7.038-1.793 10.44l.004.037c.023.25.04.434.062.477a.703.703 0 0 0 .088-.07c.068-.06.163-.143.3-.222.203-.118.93-.868 1.849-1.816 1.232-1.27 2.763-2.85 4.013-3.935.077-.068.314.03.487.192.169.16.35.616.41.87.005.016.01.03.018.043.044.087.037.149-.124.28a77.465 77.465 0 0 0-5.309 4.765c-.386.38-.769.771-1.175 1.185-.729.743-1.484 1.513-2.27 2.226-.087.078-.14.11-.184.11" fill="#807467"/><path d="M21.33 50.16a.18.18 0 0 1-.06-.012c-.163-.066-.307-.292-.488-.576l-.096-.149c-.063-.097-.125-.176-.176-.241-.096-.123-.155-.198-.094-.251 2.561-2.288 4.434-4.153 5.567-5.543.614-.752 1.35-1.443 2.061-2.11.318-.297.619-.58.903-.86.164-.164.307-.297.422-.403.133-.123.258-.238.285-.287a.139.139 0 0 0-.038-.003c-.11 0-.343.041-.697.103l-.17.031c-1.436.25-3.187.302-4.881.353-.396.012-.789.024-1.173.038-4.97.183-10.11.372-13.13 4.341-.028.037-.064.076-.111.076-.031 0-.06-.018-.087-.052a2.692 2.692 0 0 1-.572-1.737.539.539 0 0 1 .196-.437c3.446-3.26 8.452-3.71 13.346-3.71 1.078 0 2.176.023 3.239.044.985.02 2.103.043 3.159.043 1.247 0 2.254-.031 3.172-.095.097-.007.177.028.206.096.05.116-.048.3-.297.561-.387.406-.78.812-1.171 1.218-.56.58-1.14 1.18-1.686 1.76l-.266.284c-2.285 2.43-4.648 4.94-7.187 7.415-.06.058-.111.103-.175.103M8.41 48.85a.086.086 0 0 1-.061-.03c-1.087-1.103-1.73-1.843-2.024-2.598-.946-2.43-1.062-4.916-.328-6.996a.194.194 0 0 1 .18-.135c.113 0 .238.096.372.287.21.296.37.472.486.6.378.414.378.414.423 2.397l.004.187c.033 1.417.066 2.881 1.375 3.965l.027.022c.088.072.12.1.098.2-.038.169-.1.57-.118.813-.043.518-.243 1.287-.434 1.287M9.699 36.926c-.057 0-.113-.034-.169-.1-.188-.23-.362-.861-.351-.916.213-1.083.947-1.945 1.724-2.856l.06-.07c.068-.08.153-.198.235-.31.208-.285.287-.385.35-.385.016 0 .033.007.044.02.018.022.124.092.228.16.147.097.33.217.46.325.062.05.15.11.233.166.204.136.288.197.294.255.014.11-1.841 2.728-3.01 3.675a.157.157 0 0 1-.098.036M8.792 28.212c-.096 0-.237-.152-.238-.425 0-.033-.025-.14-.05-.243-.085-.368-.107-.507-.054-.558 1-.953 2.596-1.522 4.268-1.522.622 0 1.236.08 1.824.236.068.018.132.034.159.09.019.037.015.083-.01.143-.478 1.134-.538 1.14-1.108 1.03a4.896 4.896 0 0 0-1.41-.095c-.983.059-2.445.441-3.326 1.322a.076.076 0 0 1-.055.022M15.257 30.184c-.093 0-.207-.04-.357-.122-.336-.184-1.058-.702-.99-.867.422-1.032 1.19-1.93 1.932-2.796.158-.184.322-.39.481-.59.376-.47.537-.664.618-.68.09-.02.18-.03.263-.03.806 0 1.06.895 1.133 1.28.012.072.035.122.052.162.048.106.054.162-.09.257-1.256.818-2.02 2.029-2.757 3.201-.081.127-.17.185-.285.185" fill="#807467"/><path d="M20.111 33.93c-2.313 0-5.229-.21-7.271-1.857-1.275-1.03-1.575-1.585-1.922-2.229a9.307 9.307 0 0 0-.472-.804c-.046-.068-.097-.468.019-.568.33-.286.702-.38 1.271-.452l.025-.004c.073-.01.12-.016.154-.016.082 0 .103.039.127.099.406 1.027 1.196 2 2.224 2.739 1.299.934 2.921 1.408 4.821 1.408.878 0 1.582-.104 1.96-.159a12.579 12.579 0 0 1 .218-.03l-.004-.003a1.025 1.025 0 0 1-.218-.269c-.122-.222-1.187-1.622-2.953-2.488-.115-.056-.366-.366-.417-.538-.014-.05-.012-.09.006-.12.13-.21.216-.411.286-.572.114-.266.189-.44.355-.44a.34.34 0 0 1 .174.057c2.194 1.31 4.448 3.346 6.184 5.588.04.052.075.097.108.137.125.156.188.233.154.306-.042.092-.212.095-.774.104-.314.004-.746.01-1.324.035-.925.04-1.83.077-2.73.077M20.945 23.889c-.045 0-.183 0-.79-.596a8.658 8.658 0 0 0-.132-.127c-.251-.24-.468-.444-.41-.616.154-.447.301-.588.902-1.115.157-.136.416-.335.625-.494.15-.115.304-.232.324-.255a.108.108 0 0 1 .085-.037c.216 0 .722.486.99.833.175.23.252.395.226.493-.098.374-.792.998-1.298 1.456a5.42 5.42 0 0 0-.444.422.094.094 0 0 1-.078.036M9.218 40.876c-.039 0-.068-.011-.086-.033-.022-.024-.09-.116-.215-.28a136.374 136.374 0 0 0-2.115-2.74c-1.717-2.168-1.307-5.415-1.14-6.359.011-.06.044-.25.165-.25.08 0 .163.084.263.262.134.236.264.445.388.648.183.295.354.573.52.902.01.019.029.046.052.083.113.177.348.545.309.935-.167 1.654 1.524 4.669 3.288 5.862a.08.08 0 0 1 .038.071c0 .04-.002.146-.605.527-.2.126-.673.372-.862.372" fill="#807467"/><path d="M22.4 37.018c-3.21 0-6.872-.15-9.682-1.265-.113-.044-.218-.093-.249-.197-.031-.1.013-.23.142-.423.436-.649.724-.943.864-.886 2.426 1.008 5.074 1.143 7.347 1.143.867 0 1.747-.022 2.6-.045.808-.021 1.762-.043 2.706-.043 1.12 0 2.043.03 2.817.091l.165.014c.236.02.407.034.516.034.1 0 .12-.013.122-.015-.007-.03-.16-.168-.323-.312-.097-.086-.214-.19-.346-.312a529.913 529.913 0 0 1-3.832-3.616c-.68-.646-1.365-1.301-2.052-1.958-4.027-3.853-8.192-7.836-12.343-10.802a5.855 5.855 0 0 1-.246-.185l-.006.09a3.62 3.62 0 0 1-.01.187c-.074.934.092 1.946.252 2.925.15.904.337 2.22.247 3.21-.006.08-.017.226-.252.301a3.95 3.95 0 0 0-.825.285c-.114.05-.232.104-.36.15-.035.014-.066.026-.097.026-.11 0-.111-.143-.113-.213l-.004-.544c-.022-2.25-.085-9.099-.107-9.744-.01-.302-.006-.457.05-.516a.088.088 0 0 1 .066-.028c.072 0 .163.083.335.302 1.108 1.42 2.574 2.855 4.357 4.266 1.487 1.179 2.31 1.95 3.26 2.842.49.46 1.046.98 1.75 1.612 4.609 4.124 9.375 8.388 13.38 12.725.112.12.21.246.167.358-.032.086-.142.139-.336.16-.934.103-1.69.113-2.618.036a9.961 9.961 0 0 0-.821-.029c-1.199 0-2.808.134-4.102.242-.848.071-1.58.133-1.947.134H22.4Z" fill="#807467"/><path d="M8.855 33.382a.088.088 0 0 1-.066-.029c-3.482-3.834-3.35-8.84-3.209-14.138l.008-.303c.055-2.087-.032-3.878-.108-5.459-.122-2.501-.226-4.663.297-6.924.022-.099.054-.196.163-.196.076 0 .183.052.353.145 1.084.594 13.173 12.502 14.206 13.533a.072.072 0 0 1 .022.056c-.003.063-.073.129-.221.259-.1.088-.213.188-.303.295-.162.193-.325.29-.486.29a.47.47 0 0 1-.3-.119c-3.422-2.834-9.566-8.252-11.544-10.77-.465.216-.487 2.48-.503 3.988-.004.467-.008.872-.024 1.155l-.027.474c-.317 5.678-.643 11.547 2.618 16.173.156.22.029.424-.094.622a2.176 2.176 0 0 0-.102.175c-.182.357-.519.773-.68.773M64.793 70.462c-4.564 0-9.667-.185-14.37-.52-.2-.013-.228-.028-.274-.134-.009-.019-.028-.061-.007-.105.024-.05.088-.083.238-.12.366-.096.803-.412 1.09-.676.192-.177.391-.361.59-.477a.437.437 0 0 1 .272-.026c1.803.32 3.925.477 6.487.477 2.136 0 4.384-.108 6.193-.196.542-.026 1.205-.04 1.845-.054.495-.01.962-.02 1.369-.036.131-.004.148-.03.15-.035.021-.05-.156-.243-.285-.384-7.42-8.113-15.446-15.418-23.943-23.152-1.23-1.12-2.466-2.244-3.705-3.376-.127-.115-.203-.21-.255-.274-.035-.043-.068-.084-.083-.084-.026 0-.093.063-.184.152-.05.048-.112.108-.19.179a5834.38 5834.38 0 0 1-13.795 12.617.161.161 0 0 1-.1.032c-.25 0-.724-.442-.965-.702-.145-.157-.207-.268-.2-.36.008-.087.072-.136.134-.183l.04-.033c2.017-1.693 3.692-3.387 5.468-5.18.652-.658 1.327-1.34 2.028-2.03 1.874-1.847 4.203-3.911 6.256-5.732l1.083-.96c.14-.126.255-.178.381-.178.253 0 .558.207 1.254.854l.118.11c6.48 6.019 11.164 10.369 16.623 15.894 2.444 2.473 4.833 4.662 7.364 6.979 1.193 1.092 2.427 2.222 3.701 3.416l.424.393c1.09 1.01 3.117 2.89 3.317 3.206.03.05.06.093.088.13.07.1.121.172.09.239-.037.078-.165.106-.572.13-2.295.132-4.876.199-7.675.199" fill="#807467"/><path d="M46.174 64.82c-.109 0-.171-.026-.182-.078-.019-.087-.252-.358-.439-.574-.292-.339-.365-.433-.354-.49l.003-.022.023-.018c.172-.1.903-.828 1.306-1.244l.253-.262c.736-.765 1.372-1.427 2.342-1.776l.053-.02c.101-.04.178-.053.297.05.457.402.676.774.65 1.103-.05.616-.798 1.112-1.698 1.651-.73.44-1.641.988-1.998 1.611-.04.07-.253.07-.256.07M53.261 59.122c-.221 0-1.06-.706-1.216-1.53-.012-.063.054-.1.196-.18.163-.093.437-.248.759-.534.403-.36.99-.84 1.43-.84.034 0 .068.004.098.01.287.048.66.392.926.852.08.137-.394.877-1.132 1.413-.295.215-.917.687-1 .782-.008.012-.027.027-.06.027" fill="#807467"/><path d="M52.616 64.183c-.687 0-1.248-.356-1.248-.471-.025-2.976-1.706-4.657-3.836-6.783l-.28-.282a98.76 98.76 0 0 1-1.413-1.456c-.307 1.643-.054 2.78.19 3.879.027.115.052.23.077.346.15.696.282 1.32.354 1.94.006.04-.028.061-.095.102-.075.047-.202.123-.347.267-.146.145-.36.293-.487.293-.057 0-.083-.031-.093-.05-.172-.292-.362-.93-.432-1.34-.002-.015-.01-.047-.022-.098-.493-2.167-.78-5.132-.807-8.348-.002-.132.01-.195.042-.227a.075.075 0 0 1 .054-.023c.043 0 .09.034.164.118 1.157 1.335 2.512 2.453 3.823 3.534 2.026 1.671 4.08 3.533 5.022 6.28.228.668.1 1.923-.032 2.177-.01.021-.029.05-.059.058a2.04 2.04 0 0 1-.575.084" fill="#807467"/><path d="M56.572 67.292c-2.805 0-6.004-.247-8.467-2.069-.025-.019-.038-.056-.038-.114.001-.085.047-.54.848-1.098.157-.11.268-.206.352-.276.102-.087.152-.13.202-.13.018 0 .035.005.049.015 1.63 1.305 3.867 1.912 7.037 1.912 1.375 0 2.737-.11 3.94-.208l.036-.004c.269-.022.454-.038.503-.058a.649.649 0 0 0-.07-.078 1.686 1.686 0 0 1-.234-.286c-.124-.193-.91-.883-1.908-1.755-1.336-1.168-2.996-2.622-4.137-3.807-.08-.084.044-.314.204-.469.167-.16.646-.332.913-.389a.333.333 0 0 0 .045-.018c.022-.008.047-.021.079-.021.06 0 .12.041.21.14a77.091 77.091 0 0 0 6.254 6.154c.78.691 1.59 1.406 2.337 2.152.084.084.136.151.112.207-.021.054-.092.059-.156.059a32.978 32.978 0 0 0-1.507-.033 82.53 82.53 0 0 0-3.255.086 85.736 85.736 0 0 1-3.35.088" fill="#807467"/><path d="M45.46 67.454c-.035 0-.07 0-.107-.002-.185-.008-.3-.036-.457-.185-4.117-3.93-3.983-9.933-3.854-15.738.046-2.026.094-4.12-.054-6.008-.002-.039 0-.11.047-.162.1-.109.32-.031.638.243.437.376.874.757 1.31 1.137.6.524 1.22 1.064 1.82 1.574l.325.276c2.544 2.161 5.176 4.395 7.766 6.797.082.076.137.136.096.228-.068.156-.303.291-.6.463-.053.03-.106.06-.161.093-.102.059-.186.12-.254.167-.098.068-.156.11-.204.11a.072.072 0 0 1-.054-.021c-1.649-1.668-4-3.939-5.825-5.282-.79-.582-1.513-1.28-2.214-1.953a42.826 42.826 0 0 0-.909-.86c-.17-.156-.31-.292-.421-.4-.135-.131-.261-.255-.308-.274-.017.065.035.333.106.698l.031.159c.264 1.362.319 3.024.372 4.631.012.377.025.75.04 1.115.191 4.714.39 9.59 4.562 12.457.041.028.079.06.08.107 0 .032-.018.06-.055.086a3.013 3.013 0 0 1-1.716.544M44.566 70.562c-1.074 0-2.1-.153-3.05-.455-.057-.02-.129-.07-.138-.153-.016-.113.086-.24.3-.376.312-.2.495-.351.63-.463.435-.357.435-.357 2.52-.399l.194-.004c1.492-.032 3.031-.064 4.17-1.306l.021-.024c.06-.066.09-.1.152-.1a.26.26 0 0 1 .055.006c.181.037.604.095.855.112.503.037 1.29.217 1.347.389a.082.082 0 0 1-.025.088c-1.188 1.054-1.936 1.64-2.73 1.919-1.45.509-2.896.766-4.3.766M38.04 67.088h-.01c-1.137-.202-2.042-.898-3-1.635l-.073-.057a5.982 5.982 0 0 0-.33-.226c-.314-.207-.4-.271-.401-.33a.054.054 0 0 1 .023-.048c.023-.017.098-.12.17-.22.101-.138.227-.311.339-.433.053-.058.115-.143.176-.223.142-.191.206-.27.264-.276.123 0 2.853 1.736 3.857 2.855.042.046.05.101.028.153-.106.24-.98.44-1.043.44M28.752 67.807c-.048 0-.078-.008-.097-.026-1.407-1.333-1.963-3.714-1.353-5.786.028-.098.068-.207.241-.142 1.18.45 1.199.501 1.08 1.054-.057.268-.144.673-.099 1.337.063.932.464 2.318 1.388 3.153.024.02.03.055.017.09-.034.093-.186.192-.437.193-.035 0-.143.023-.257.047-.175.038-.374.08-.483.08M31.003 62.603a.072.072 0 0 1-.028-.005c-1.084-.398-2.027-1.127-2.938-1.831-.193-.15-.413-.305-.626-.456-.531-.375-.716-.515-.711-.602.038-.717.37-1.273.936-1.567a.372.372 0 0 1 .169-.037.92.92 0 0 1 .644.324c.86 1.189 2.133 1.913 3.364 2.616.107.06.167.126.187.206.027.102-.01.228-.12.408-.22.364-.712.944-.877.944" fill="#807467"/><path d="M30.488 65.934c-.139 0-.231-.021-.273-.065-.301-.316-.4-.67-.476-1.21l-.003-.024c-.027-.188-.033-.227.086-.27 1.08-.385 2.103-1.134 2.88-2.109 1.298-1.63 1.74-3.793 1.312-6.431l-.025-.168-.006-.04a1.065 1.065 0 0 1-.291.214c-.234.115-1.705 1.125-2.616 2.802-.064.12-.46.404-.626.404a.121.121 0 0 1-.059-.014c-.221-.124-.433-.205-.603-.271-.25-.098-.414-.162-.454-.287-.02-.064-.003-.137.053-.222 1.377-2.08 3.517-4.22 5.874-5.868.053-.036.101-.07.143-.102.132-.097.212-.154.277-.154.135 0 .138.173.147.746.006.299.012.708.038 1.255.152 3.127.34 7.019-1.873 9.496-1.081 1.208-1.665 1.492-2.341 1.822-.26.126-.527.257-.846.448-.05.031-.2.048-.318.048M24.044 57.203a.21.21 0 0 1-.06-.008c-.427-.133-.667-.382-1.144-.877l-.123-.125a9.373 9.373 0 0 1-.478-.562 3.868 3.868 0 0 0-.205-.245c-.029-.022-.057-.064-.029-.147.103-.31 1.014-1.1 1.336-1.1.015 0 .029.003.041.005.387.092 1.035.767 1.509 1.258.202.21.377.392.458.449a.09.09 0 0 1 .038.07c.004.047.011.171-.626.76l-.135.126c-.224.213-.417.396-.582.396M35.37 70.585c-.671 0-1.348-.054-2.01-.16-.105-.016-.247-.05-.261-.144-.013-.08.074-.167.274-.269.248-.125.47-.25.683-.368.308-.173.6-.336.945-.493l.09-.05c.193-.112.57-.33.977-.291.084.007.17.011.26.011 1.807 0 4.728-1.531 5.898-3.092a.083.083 0 0 1 .069-.034c.037 0 .15 0 .552.574.005.008.523.778.357.906a9.3 9.3 0 0 1-.237.158c-.444.293-1.485.978-2.93 2.012-1.433 1.025-3.329 1.24-4.667 1.24" fill="#807467"/><path d="M15.745 66.948c-.207 0-.323-.015-.347-.091-.024-.077.055-.165.314-.346 1.493-1.054 3.002-2.445 4.483-4.135 1.238-1.411 2.047-2.19 2.985-3.091.484-.467 1.033-.994 1.696-1.664 4.337-4.375 8.823-8.9 13.374-12.696.103-.087.213-.166.315-.166.123 0 .198.11.224.329.107.869.118 1.613.038 2.487-.104 1.123.086 3.176.225 4.675.074.802.138 1.493.14 1.841.013 3.406-.139 6.93-1.33 9.64-.045.102-.108.243-.272.243-.095 0-.214-.044-.374-.142-1.027-.622-.955-.775-.932-.827 1.342-2.912 1.246-6.226 1.154-9.43-.053-1.823-.084-3.717.051-5.247l.015-.158c.029-.316.05-.565.02-.6-.033.003-.179.151-.333.307-.091.092-.2.203-.33.329a535.417 535.417 0 0 1-3.8 3.637c-.678.645-1.366 1.293-2.055 1.944-4.05 3.821-8.238 7.773-11.355 11.713-.054.069-.1.121-.135.163-.02.024-.042.048-.055.066l.091.004.198.01c.16.013.332.019.508.019.83 0 1.707-.13 2.554-.256l.014-.002c.739-.109 1.832-.256 2.783-.256.212 0 .41.008.59.023.081.004.232.015.313.238.077.326.19.557.299.78.053.11.109.222.158.343.022.052.042.102.014.147-.028.04-.087.058-.207.058l-.677.006c-2.59.021-9.467.08-10.136.1-.082.003-.154.005-.218.005" fill="#807467"/><path d="M10.996 70.622c-1.447 0-2.667-.07-3.84-.222-.1-.013-.163-.05-.193-.111-.045-.095-.003-.24.137-.469.628-1.035 13.14-12.5 14.224-13.48a.079.079 0 0 1 .053-.02c.063 0 .136.073.271.21.093.094.197.202.311.288.188.142.29.287.304.432.01.11-.033.217-.126.32-3.196 3.483-8.806 9.17-11.315 10.951.241.438 2.703.46 4.187.474.493.003.92.008 1.217.023l.502.026c1.765.088 3.59.179 5.373.179 3.463 0 7.914-.302 11.626-2.665a.403.403 0 0 1 .222-.067c.146 0 .282.076.424.157.06.033.123.068.184.096.367.169.793.475.813.635a.086.086 0 0 1-.03.08c-3.318 2.72-7.578 3.094-11.687 3.094-1.048 0-2.128-.025-3.173-.05l-.314-.008a85.712 85.712 0 0 0-1.874-.022c-1.545 0-2.885.042-4.18.084-1.09.033-2.12.065-3.116.065M56.262 52.419c-.098 0-.156-.068-.206-.127l-.034-.038c-2.33-2.503-4.618-4.675-7.556-7.367-2.808-2.574-5.195-4.858-7.095-6.788-.112-.113-.215-.241-.213-.407.002-.25.231-.563.842-1.156l.14-.136c6.334-6.158 10.91-10.606 16.726-15.793 2.954-2.636 5.604-5.213 8.41-7.94.853-.83 1.723-1.675 2.627-2.548l.438-.425c1.057-1.029 3.025-2.945 3.356-3.133.052-.03.098-.058.136-.084.086-.055.147-.093.204-.093.124 0 .155.163.179.554.407 6.388-.023 14.82-.337 20.976-.01.194-.033.222-.142.266a.173.173 0 0 1-.063.014c-.085 0-.127-.09-.17-.236-.1-.347-.433-.763-.71-1.036-.188-.183-.38-.372-.503-.562-.038-.062-.049-.158-.029-.264.742-3.756.505-8.169.295-12.061-.027-.513-.04-1.19-.054-1.842-.012-.51-.022-.992-.038-1.384l-.002-.055a.968.968 0 0 0-.003-.061l-.034.034c-.05.05-.125.123-.235.213-8.902 7.352-16.979 15.347-25.528 23.811l-2.566 2.54-.119.115c-.134.129-.215.207-.216.27 0 .073.108.178.305.37l.083.081c2.219 2.174 13.104 13 13.176 13.082a.15.15 0 0 1 .035.115c-.02.244-.476.685-.742.906-.152.13-.267.189-.357.189" fill="#807467"/><path d="M67.29 32.888c-.02 0-.04-.01-.049-.025-.092-.144-.743-.744-1.31-1.242l-.275-.24c-.808-.702-1.506-1.306-1.875-2.23l-.02-.049c-.046-.103-.065-.167.054-.29l.168-.176c.289-.304.44-.462.74-.44.708.05 1.491.866 1.988 1.613.462.696 1.037 1.561 1.696 1.903.065.033.083.22.07.308-.011.083-.049.107-.078.113-.092.017-.378.238-.606.417-.308.24-.441.338-.503.338M61.095 26.325c-.085 0-.266-.136-.98-.859-.45-.456-.957-1.035-.875-1.46.054-.277.406-.624.9-.884a.092.092 0 0 1 .042-.008c.164 0 .872.38 1.44 1.086.234.291.724.873.824.951.032.024.041.07.026.133-.062.248-.542.9-1.365 1.04l-.012.001Z" fill="#807467"/><path d="M55.147 33.86c-.136 0-.22-.01-.24-.07-.019-.058.034-.115.123-.184 1.405-1.1 2.585-2.39 3.724-3.638 1.76-1.924 3.723-3.88 6.616-4.777.321-.1.733-.12 1.023-.12.452 0 1.285.07 1.33.207a1.832 1.832 0 0 1-.237 1.587c-.073.1-.13.152-.17.153-3.14.024-4.91 1.624-7.152 3.65l-.297.267c-.424.383-1.059.935-1.528 1.338.536.09 1.045.135 1.553.135.96 0 1.76-.16 2.532-.316.122-.025.243-.05.366-.073.635-.124 1.356-.266 2.043-.337h.001c.043 0 .062.03.102.088.048.073.13.194.281.331.166.152.324.366.309.485a.092.092 0 0 1-.05.074c-.308.164-.979.344-1.412.41-.015.002-.05.01-.105.022-2.287.47-5.41.742-8.795.769h-.017Z" fill="#807467"/><path d="M68.792 30.158c-.088 0-.565-.038-1.16-.805-.116-.15-.217-.257-.29-.335-.112-.118-.174-.184-.12-.246 2.485-2.803 2.102-7.038 1.793-10.44l-.003-.035c-.023-.252-.039-.438-.062-.479a.645.645 0 0 0-.088.069 1.693 1.693 0 0 1-.3.222c-.203.12-.93.869-1.85 1.817-1.23 1.27-2.763 2.85-4.012 3.935-.082.07-.314-.03-.487-.193-.167-.157-.35-.614-.411-.87a.335.335 0 0 0-.017-.042c-.044-.088-.036-.15.124-.281a77.405 77.405 0 0 0 6.482-5.945c.73-.746 1.486-1.516 2.272-2.23.132-.118.197-.133.241-.087.038.042.035.118.029.238l-.001.014c-.07 1.434-.004 2.949.06 4.414.178 4.06.361 8.258-2.087 11.244-.019.023-.056.035-.113.035" fill="#807467"/><path d="M48.12 36.893c-.09 0-.157-.034-.183-.096-.05-.117.048-.3.296-.561.384-.403.773-.806 1.162-1.207.564-.584 1.146-1.188 1.695-1.77l.383-.408c2.249-2.39 4.573-4.86 7.071-7.292.079-.076.145-.126.234-.09.165.065.308.29.49.576l.095.149c.063.096.126.176.176.24.097.123.156.197.094.252-2.564 2.289-4.436 4.154-5.567 5.542-.613.752-1.348 1.442-2.06 2.108-.319.299-.62.581-.905.864-.163.162-.306.294-.422.401-.13.123-.257.24-.284.287.008.002.02.003.04.003.108 0 .342-.041.696-.103l.169-.03c1.435-.25 3.186-.304 4.879-.354.397-.012.791-.023 1.175-.038 4.971-.182 10.111-.372 13.13-4.342.029-.036.063-.074.112-.074.031 0 .06.016.087.05.389.498.596 1.131.571 1.738a.547.547 0 0 1-.195.438c-3.447 3.26-8.456 3.709-13.356 3.709-1.071 0-2.165-.022-3.223-.043-1.193-.025-2.18-.044-3.174-.044-1.225 0-2.26.031-3.164.095h-.022ZM73.871 36.524c-.112 0-.236-.096-.37-.285-.211-.298-.372-.473-.488-.602-.377-.413-.377-.413-.422-2.401l-.004-.182c-.033-1.417-.066-2.882-1.374-3.965l-.028-.021c-.087-.072-.12-.099-.098-.2.038-.174.1-.576.118-.814.041-.507.245-1.288.433-1.288a.09.09 0 0 1 .063.029c1.11 1.13 1.729 1.843 2.023 2.598.945 2.432 1.062 4.917.328 6.998a.195.195 0 0 1-.181.133M68.501 43.328a.061.061 0 0 1-.044-.02 2.304 2.304 0 0 0-.232-.164 5.938 5.938 0 0 1-.456-.321 2.945 2.945 0 0 0-.237-.169c-.205-.139-.284-.195-.29-.253-.016-.125 1.947-2.98 3.108-3.918.083-.065.179-.043.268.067.19.233.36.859.348.914-.215 1.1-1.07 2.219-1.879 3.168-.07.082-.154.197-.236.31-.208.286-.287.386-.35.386M67.333 50.152c-.623 0-1.237-.08-1.826-.236-.07-.019-.132-.035-.159-.09-.019-.037-.014-.083.01-.145.48-1.132.538-1.137 1.11-1.028.23.045.55.107 1.033.107.12 0 .246-.004.374-.012.984-.059 2.446-.441 3.328-1.322.075-.076.29.068.292.404 0 .032.025.137.05.24.086.37.108.509.054.56-1 .952-2.595 1.522-4.266 1.522M62.954 50.635h-.003c-.688-.033-1.055-.673-1.377-1.238-.13-.221.026-.505.25-.652 1.213-.791 1.866-1.83 2.625-3.032l.059-.095c.08-.127.168-.185.285-.185.093 0 .206.04.357.12.334.185 1.057.704.989.868-.421 1.03-1.19 1.928-1.931 2.796-.141.164-.306.368-.464.566-.488.606-.697.852-.79.852" fill="#807467"/><path d="M61.73 47.989a.334.334 0 0 1-.175-.059c-2.195-1.309-4.449-3.346-6.183-5.587l-.109-.137c-.125-.154-.188-.234-.155-.306.044-.092.214-.095.777-.103.314-.004.746-.011 1.323-.036.925-.04 1.83-.077 2.73-.077 2.313 0 5.23.212 7.271 1.86 1.275 1.028 1.575 1.583 1.921 2.227.134.247.272.502.475.804.044.07.092.471-.02.569-.333.286-.703.38-1.272.452l-.023.004c-.075.01-.122.014-.157.014-.086 0-.106-.047-.125-.096-.407-1.028-1.196-2-2.224-2.74-1.3-.935-2.922-1.41-4.823-1.41-.876 0-1.58.104-1.96.16l-.177.025-.039.005.003.002c.052.048.14.129.219.27.121.222 1.183 1.622 2.953 2.489.114.056.365.366.416.538.014.05.012.09-.005.12-.13.21-.217.412-.287.573-.114.265-.19.439-.354.439M58.452 54.967c-.216 0-.723-.487-.99-.836-.177-.227-.253-.394-.227-.491.097-.372.747-.953 1.222-1.378.196-.174.365-.325.424-.402a.093.093 0 0 1 .077-.034c.045 0 .183 0 .79.595l.134.129c.251.238.467.443.408.615-.153.445-.314.599-.901 1.113-.164.142-.4.314-.589.453a3.238 3.238 0 0 0-.263.2.11.11 0 0 1-.085.036M74.222 44.401c-.08 0-.162-.083-.263-.26a18.76 18.76 0 0 0-.388-.65 11.141 11.141 0 0 1-.52-.902l-.05-.082c-.115-.176-.35-.544-.311-.935.168-1.664-1.418-4.548-3.144-5.717a.084.084 0 0 1-.038-.07c.002-.04.004-.145.608-.527.199-.126.67-.372.86-.372.04 0 .069.012.088.033.02.023.073.096.17.23.284.388.947 1.296 2.013 2.642 1.718 2.169 1.307 5.417 1.14 6.36-.01.062-.043.25-.165.25" fill="#807467"/><path d="M70.602 61.245c-.072 0-.162-.082-.335-.302-1.11-1.418-2.575-2.854-4.356-4.265-1.487-1.176-2.307-1.946-3.257-2.837a87.61 87.61 0 0 0-1.755-1.617c-4.611-4.127-9.38-8.395-13.38-12.723-.112-.122-.208-.248-.167-.36.033-.086.143-.139.337-.16.934-.104 1.69-.113 2.618-.036.229.02.505.028.824.028 1.2 0 2.811-.133 4.105-.243.846-.07 1.575-.13 1.94-.132h.465c3.215 0 6.881.15 9.69 1.264.113.045.216.094.248.198.033.1-.01.23-.14.422-.436.65-.724.945-.866.887-2.424-1.007-5.07-1.142-7.34-1.142-.87 0-1.753.023-2.606.044-.803.02-1.75.042-2.693.042-1.126 0-2.053-.029-2.83-.091l-.166-.012c-.235-.02-.407-.035-.515-.035-.1 0-.12.013-.123.015.009.03.161.166.324.312.097.085.213.19.346.312 1.244 1.159 2.529 2.379 3.77 3.557l.062.059a739.92 739.92 0 0 1 2.04 1.946c4.031 3.857 8.2 7.845 12.355 10.814.072.05.126.094.17.129.028.021.057.044.077.057l.004-.09.01-.188c.076-.928-.09-1.935-.249-2.908l-.003-.017c-.149-.905-.336-2.223-.247-3.21.007-.081.02-.226.253-.301.341-.073.585-.18.82-.283.115-.052.235-.105.364-.151.037-.015.068-.027.098-.027.11 0 .113.143.113.212.008.977.086 9.566.111 10.288.012.303.006.458-.051.517a.089.089 0 0 1-.065.027" fill="#807467"/><path d="M74.11 69.283c-.077 0-.183-.052-.354-.145-1.082-.593-13.173-12.501-14.206-13.533a.075.075 0 0 1-.023-.056c.003-.063.074-.129.222-.258.1-.088.213-.19.304-.297.263-.315.54-.374.786-.17 3.672 3.043 9.667 8.383 11.544 10.769.465-.215.487-2.48.502-3.986.005-.468.01-.872.024-1.156l.026-.471c.317-5.679.645-11.55-2.617-16.177-.156-.22-.028-.423.094-.62.035-.057.072-.115.102-.175.181-.358.518-.774.68-.774.026 0 .05.01.067.029 3.483 3.835 3.349 8.84 3.208 14.141l-.007.3c-.055 2.088.031 3.878.108 5.458.12 2.503.224 4.664-.298 6.924-.017.078-.045.197-.162.197" fill="#807467"/><path d="M15.323 17.432h2.97c1.487 0 2.018-.918 2.018-1.779 0-.861-.53-1.78-2.019-1.78h-2.97v3.56Zm7.302 5.444h-2.64l-2.271-3.441h-2.391v3.44h-2.101v-3.44h-1.3v-2.003h1.3v-5.561h5.227c2.369 0 3.961 1.52 3.961 3.782 0 1.516-.986 2.808-2.52 3.308l2.735 3.915ZM39.044 22.915h2.1V11.909h-2.1zM64.496 22.876h-2.098v-9.004H59.21V11.87h8.477v2.002h-3.19zM18.038 45.206c-2.782 0-4.88-2.03-4.88-4.72v-6.51h2.1v6.075c0 1.857 1.143 3.154 2.78 3.154 1.637 0 2.78-1.297 2.78-3.154v-6.075h2.1v6.51c0 2.69-2.099 4.72-4.88 4.72M38.582 41.032h3.039l-1.512-3.747-1.527 3.747Zm6.88 3.949H43.2l-.012-.029-.82-2.023h-4.551l-.831 2.052h-2.248l.027-.063 3.943-9.046h-2.473v-1.896h4.58l.012.027 4.635 10.978ZM67.57 44.98h-8.392V33.976h2.1v9.003h4.19v-2.606h2.101zM17.478 66.051c-1.76 0-3.47-.739-4.695-2.029l-.031-.033 1.592-1.434.03.032c.872.93 2.035 1.463 3.19 1.463 1.576-.017 2.556-.626 2.556-1.589 0-.995-1.246-1.163-2.689-1.357-1.93-.258-4.33-.581-4.33-3.18 0-1.898 1.956-3.328 4.55-3.328 1.802 0 3.27.566 4.365 1.681l.032.034-1.556 1.398-.029-.03c-.919-.904-1.79-1.29-2.915-1.29-1.55 0-2.244.719-2.244 1.431 0 1 1.239 1.156 2.673 1.336 1.936.244 4.346.547 4.346 3.2 0 2.4-2.496 3.695-4.845 3.695M43.219 65.744a1.778 1.778 0 0 1-1.774-1.779c0-.982.795-1.78 1.774-1.78a1.78 1.78 0 0 1 0 3.56M54.66 65.744a1.779 1.779 0 0 1 0-3.559 1.78 1.78 0 0 1 0 3.56M66.098 65.744a1.779 1.779 0 0 1 0-3.56 1.78 1.78 0 0 1 0 3.56" fill="#FEFEFE"/></g></svg>